<?xml version="1.0" standalone="no"?>
<!DOCTYPE svg PUBLIC "-//W3C//DTD SVG 20010904//EN"
 "http://www.w3.org/TR/2001/REC-SVG-20010904/DTD/svg10.dtd">
<svg version="1.0" xmlns="http://www.w3.org/2000/svg"
 width="2048.000000pt" height="2048.000000pt" viewBox="0 0 2048.000000 2048.000000"
 preserveAspectRatio="xMidYMid meet">

<g transform="translate(0.000000,2048.000000) scale(0.100000,-0.100000)"
fill="#000000" stroke="none">
<path d="M0 10240 l0 -10240 10240 0 10240 0 0 10240 0 10240 -10240 0 -10240
0 0 -10240z m10760 8050 c337 -20 782 -77 1085 -141 145 -31 516 -122 666
-164 487 -137 1182 -429 1659 -698 688 -387 1203 -777 1740 -1316 986 -992
1724 -2206 2054 -3381 231 -826 321 -1435 333 -2255 12 -824 -61 -1442 -252
-2152 -92 -342 -269 -863 -355 -1048 -16 -33 -38 -89 -50 -124 -40 -119 -245
-511 -457 -875 -263 -450 -488 -765 -831 -1166 -152 -177 -629 -654 -809 -808
-932 -797 -1931 -1350 -2993 -1657 -874 -252 -1491 -335 -2409 -322 -509 7
-792 30 -1236 102 -305 49 -410 73 -865 192 -548 143 -925 284 -1395 523
-1525 775 -2904 2163 -3640 3665 -76 156 -227 492 -240 535 -4 14 -22 59 -40
100 -18 41 -84 233 -148 425 -301 912 -434 1846 -399 2790 27 724 119 1286
328 2010 191 665 453 1271 792 1835 701 1167 1788 2229 2977 2907 729 417
1649 753 2455 897 309 56 780 118 970 129 140 8 904 6 1060 -3z"/>
<path d="M8405 14020 c-214 -4 -475 -15 -580 -24 -1124 -97 -2342 -325 -2730
-511 -153 -73 -273 -190 -349 -340 -58 -117 -71 -180 -70 -340 0 -124 3 -149
27 -220 59 -176 182 -334 327 -418 116 -67 204 -89 375 -94 l150 -5 316 81
c174 44 406 99 515 121 1222 250 2734 322 4124 195 758 -70 1739 -250 2411
-444 715 -206 1049 -337 1739 -682 305 -152 537 -262 570 -270 94 -22 251 -15
355 16 231 68 407 210 496 400 50 106 69 180 76 295 12 207 -54 367 -222 535
-108 109 -217 184 -430 299 -873 468 -2088 892 -3200 1115 -612 123 -1554 242
-2210 280 -239 14 -1225 20 -1690 11z"/>
<path d="M8310 11250 c-655 -28 -1446 -142 -2175 -315 -166 -39 -417 -112
-505 -145 -157 -61 -282 -173 -350 -315 -48 -101 -64 -168 -64 -275 0 -253
136 -458 378 -570 104 -49 180 -64 270 -55 39 4 201 40 361 80 769 195 1371
288 2105 326 298 15 1128 6 1380 -15 432 -36 1023 -117 1375 -187 642 -129
1459 -380 2010 -619 189 -82 702 -341 842 -426 210 -127 290 -154 453 -154
121 0 202 20 304 72 149 78 269 226 311 384 24 88 22 223 -4 317 -61 224 -165
322 -588 558 -1094 609 -2363 1023 -3748 1223 -329 48 -654 81 -1050 106 -216
15 -1051 20 -1305 10z"/>
<path d="M8440 8610 c-151 -4 -333 -13 -405 -19 -833 -72 -2018 -276 -2227
-382 -50 -26 -131 -100 -170 -156 -68 -99 -101 -251 -79 -368 27 -147 142
-304 267 -366 128 -63 235 -59 649 25 466 96 1253 215 1612 246 779 66 1973 4
2703 -140 540 -107 1104 -286 1625 -517 187 -83 506 -243 654 -328 42 -24 134
-72 204 -106 122 -60 133 -63 216 -67 149 -7 279 45 377 151 153 165 185 395
82 589 -65 122 -144 180 -533 394 -806 442 -1756 767 -2711 928 -202 34 -332
51 -687 87 -285 29 -331 30 -802 34 -275 2 -624 0 -775 -5z"/>
</g>
</svg>
